<svg xmlns="http://www.w3.org/2000/svg" width="252.368" height="50.242" viewBox="0 0 252.368 50.242"><g transform="translate(-16.637 56.292)"><path d="M31-54.9a28.711,28.711,0,0,0-7.3,4.7C20.6-47.3,17-41,17-38.5l-.275,1.85s-.088,1.325-.088,3.225v3.362S17-28.7,17.3-27C18.1-23.4,24-16.6,28-15c2.6,1.1,3.4.9,6.6-1.1l3.8-2.3-3-.9C27.3-22,23.5-27.5,24.2-35.7c.4-4.4,1.1-6,3.8-8.9,6.7-6.9,15.9-6.6,22.4.6,3.2,3.5,3.6,4.6,3.6,9.3,0,7.5-2.4,10.6-13.4,17.9-5.3,3.5-9.6,6.6-9.6,7,0,.5,2.6.8,5.8.8,5.7,0,6.1-.2,12.8-5.8,8.9-7.4,11.7-12.6,11.1-20.3a32.162,32.162,0,0,0-2.6-9.7c-2.13-4.074-7.678-8.935-11.538-10.294.045,0-.206-.206-.428-.206l-.659-.225-.8-.275-1.05-.3S35.9-57,31-54.9Z" fill="#4f46e5"/><path d="M73-52.1c0,2.6.4,3.1,2.3,3.1,3.1,0,9.4,4.5,11.2,8A22.065,22.065,0,0,1,88-32.9c0,4.8-.3,5.5-4.4,9.5-4.1,4.1-4.7,4.4-9.7,4.4-3,0-6.5-.7-7.9-1.5-4.9-2.8-5.3-2.8-6.6-1-2.1,2.8-1.7,3.8,2,6.3,4.1,2.8,12.5,3.9,18.2,2.3,2.3-.6,6.1-2.9,8.5-5l4.4-3.8,3.1,2.3c6.1,4.7,14.8,6.6,19.8,4.3,3.5-1.6,4-5.1,1.6-9.9-2.6-5.1-2.5-9.5.3-14.4A15.141,15.141,0,0,1,130.9-47c11.2,0,17.9,10.8,13.2,21.5-2.1,4.8-1.7,7.7,1.3,9.7,2.3,1.6,10.2.7,15.1-1.6,5.8-2.7,8.8-5.7,11-10.8,1.4-3.6,2.1-14.8.9-16-.3-.3-1.7-.3-3.2.1-2.5.7-2.7,1.2-3,6.3-.2,4.7-.8,6.2-3.7,9.6-3.2,3.6-8.6,6.7-9.8,5.6-.3-.3-.3-3.2,0-6.5,2.1-22.2-24.1-33.5-39.1-16.9-4.4,4.8-6,10.7-5.2,18.2.6,5.2.5,5.8-1.1,5.8-2.8,0-8.1-3.7-10.2-7.1a26.491,26.491,0,0,1-2.5-7.8c-1.2-8.8-8.9-16.9-17-17.8C73-55.3,73-55.3,73-52.1Z" fill="#4f46e5"/><path d="M190.8-52.9c-5.1,1.5-11.7,7.4-13.9,12.7-2.2,5.2-2.4,13.6-.4,17.2s1.8,4.1-1.2,2.9c-2.2-.8-3.2-.6-5.2.9-3.3,2.4-3.8,5.5-1.2,8.1C173-7,179-9.8,179-15.8v-2.4l3.1,2.6c4.1,3.5,7.6,4.3,10.8,2.3,3.6-2.2,3.6-3.3,0-4.1-7.3-1.4-12.7-11.9-9.9-19.1,4.7-12.4,20.1-14.2,27.4-3.2,2.3,3.4,2.7,5,2.3,8.8-.5,6.5-3.1,9.5-14.1,17-5.2,3.5-9.5,6.7-9.6,7.1,0,1,12.7,1,13.2,0a52.414,52.414,0,0,1,5.7-5.2c8.8-7.2,11.1-11.1,11.1-18.7,0-6.9-1.8-12.4-5.3-16.1C208.6-52.3,198.4-55,190.8-52.9Z" fill="#4f46e5"/><path d="M237.5-52.3c-4,2.1-7.9,5.8-12.1,11.5-3.2,4.3-3.5,5.2-3.2,10.8l.3,6,6.4-9.5c6.8-10.1,10.7-13.4,17-14.2,4.9-.7,11.3,2.7,14.1,7.3,2.7,4.3,2.6,11.6-.1,16.1-2.4,3.9-8.4,7.3-12.9,7.3-6.5,0-15-7-15-12.5,0-2.3-1.8-1.5-3.7,1.6-2.2,3.6-1,7.4,3.5,12,8.3,8.3,21.5,7.9,30.3-1,14.5-14.4,4.7-37.2-15.8-37.1C243-53.9,239.2-53.2,237.5-52.3Z" fill="#4f46e5"/><path d="M125.6-37.9a6.013,6.013,0,0,0-2.6,4.7c0,4.4,1.4,5.6,6.5,5.7,3.6,0,5-.4,6.1-1.9,2-3,1.7-5.4-1.1-8.1C131.5-40.5,129.1-40.6,125.6-37.9Z" fill="#4f46e5"/><path d="M124.2-23.7c-3.7,4.4-.8,11.7,4.7,11.7,6.3,0,9.7-7.3,5.3-11.3C132-25.3,125.7-25.5,124.2-23.7Z" fill="#4f46e5"/></g></svg>